<mxfile host="app.diagrams.net" agent="Mozilla/5.0 (Macintosh; Intel Mac OS X 10.15; rv:132.0) Gecko/20100101 Firefox/132.0" version="24.8.6">
  <diagram name="Page-1" id="Q77XL9zGTMkFnIR6ynKP">
    <mxGraphModel dx="1363" dy="881" grid="1" gridSize="10" guides="1" tooltips="1" connect="1" arrows="1" fold="1" page="1" pageScale="1" pageWidth="850" pageHeight="1100" math="0" shadow="0">
      <root>
        <mxCell id="0" />
        <mxCell id="1" parent="0" />
        <mxCell id="H5q1-8MxCuYBK-bklUZk-51" value="" style="group" vertex="1" connectable="0" parent="1">
          <mxGeometry x="390" y="470" width="240" height="500" as="geometry" />
        </mxCell>
        <mxCell id="H5q1-8MxCuYBK-bklUZk-1" value="ESP8266" style="rounded=0;whiteSpace=wrap;html=1;rotation=90;" vertex="1" parent="H5q1-8MxCuYBK-bklUZk-51">
          <mxGeometry x="-130" y="130" width="500" height="240" as="geometry" />
        </mxCell>
        <mxCell id="H5q1-8MxCuYBK-bklUZk-2" value="3V3" style="html=1;verticalLabelPosition=bottom;labelBackgroundColor=#ffffff;verticalAlign=top;shadow=0;dashed=0;strokeWidth=2;shape=mxgraph.ios7.misc.circle;strokeColor=#222222;fillColor=none;" vertex="1" parent="H5q1-8MxCuYBK-bklUZk-51">
          <mxGeometry x="190" y="12" width="40" height="40" as="geometry" />
        </mxCell>
        <mxCell id="H5q1-8MxCuYBK-bklUZk-3" value="&lt;div&gt;D8&lt;/div&gt;" style="html=1;verticalLabelPosition=bottom;labelBackgroundColor=#ffffff;verticalAlign=top;shadow=0;dashed=0;strokeWidth=2;shape=mxgraph.ios7.misc.circle;strokeColor=#222222;fillColor=none;" vertex="1" parent="H5q1-8MxCuYBK-bklUZk-51">
          <mxGeometry x="190" y="72" width="40" height="40" as="geometry" />
        </mxCell>
        <mxCell id="H5q1-8MxCuYBK-bklUZk-36" value="D7" style="html=1;verticalLabelPosition=bottom;labelBackgroundColor=#ffffff;verticalAlign=top;shadow=0;dashed=0;strokeWidth=2;shape=mxgraph.ios7.misc.circle;strokeColor=#222222;fillColor=none;" vertex="1" parent="H5q1-8MxCuYBK-bklUZk-51">
          <mxGeometry x="190" y="132" width="40" height="40" as="geometry" />
        </mxCell>
        <mxCell id="H5q1-8MxCuYBK-bklUZk-37" value="D6" style="html=1;verticalLabelPosition=bottom;labelBackgroundColor=#ffffff;verticalAlign=top;shadow=0;dashed=0;strokeWidth=2;shape=mxgraph.ios7.misc.circle;strokeColor=#222222;fillColor=none;" vertex="1" parent="H5q1-8MxCuYBK-bklUZk-51">
          <mxGeometry x="190" y="192" width="40" height="40" as="geometry" />
        </mxCell>
        <mxCell id="H5q1-8MxCuYBK-bklUZk-38" value="D5" style="html=1;verticalLabelPosition=bottom;labelBackgroundColor=#ffffff;verticalAlign=top;shadow=0;dashed=0;strokeWidth=2;shape=mxgraph.ios7.misc.circle;strokeColor=#222222;fillColor=none;" vertex="1" parent="H5q1-8MxCuYBK-bklUZk-51">
          <mxGeometry x="190" y="252" width="40" height="40" as="geometry" />
        </mxCell>
        <mxCell id="H5q1-8MxCuYBK-bklUZk-39" value="D0" style="html=1;verticalLabelPosition=bottom;labelBackgroundColor=#ffffff;verticalAlign=top;shadow=0;dashed=0;strokeWidth=2;shape=mxgraph.ios7.misc.circle;strokeColor=#222222;fillColor=none;" vertex="1" parent="H5q1-8MxCuYBK-bklUZk-51">
          <mxGeometry x="190" y="312" width="40" height="40" as="geometry" />
        </mxCell>
        <mxCell id="H5q1-8MxCuYBK-bklUZk-40" value="A0" style="html=1;verticalLabelPosition=bottom;labelBackgroundColor=#ffffff;verticalAlign=top;shadow=0;dashed=0;strokeWidth=2;shape=mxgraph.ios7.misc.circle;strokeColor=#222222;fillColor=none;" vertex="1" parent="H5q1-8MxCuYBK-bklUZk-51">
          <mxGeometry x="190" y="372" width="40" height="40" as="geometry" />
        </mxCell>
        <mxCell id="H5q1-8MxCuYBK-bklUZk-41" value="RST" style="html=1;verticalLabelPosition=bottom;labelBackgroundColor=#ffffff;verticalAlign=top;shadow=0;dashed=0;strokeWidth=2;shape=mxgraph.ios7.misc.circle;strokeColor=#222222;fillColor=none;" vertex="1" parent="H5q1-8MxCuYBK-bklUZk-51">
          <mxGeometry x="190" y="432" width="40" height="40" as="geometry" />
        </mxCell>
        <mxCell id="H5q1-8MxCuYBK-bklUZk-43" value="5V" style="html=1;verticalLabelPosition=bottom;labelBackgroundColor=#ffffff;verticalAlign=top;shadow=0;dashed=0;strokeWidth=2;shape=mxgraph.ios7.misc.circle;strokeColor=#222222;fillColor=none;" vertex="1" parent="H5q1-8MxCuYBK-bklUZk-51">
          <mxGeometry x="20.000000000000014" y="12" width="40" height="40" as="geometry" />
        </mxCell>
        <mxCell id="H5q1-8MxCuYBK-bklUZk-44" value="G" style="html=1;verticalLabelPosition=bottom;labelBackgroundColor=#ffffff;verticalAlign=top;shadow=0;dashed=0;strokeWidth=2;shape=mxgraph.ios7.misc.circle;strokeColor=#222222;fillColor=none;" vertex="1" parent="H5q1-8MxCuYBK-bklUZk-51">
          <mxGeometry x="20.000000000000014" y="72" width="40" height="40" as="geometry" />
        </mxCell>
        <mxCell id="H5q1-8MxCuYBK-bklUZk-45" value="D4" style="html=1;verticalLabelPosition=bottom;labelBackgroundColor=#ffffff;verticalAlign=top;shadow=0;dashed=0;strokeWidth=2;shape=mxgraph.ios7.misc.circle;strokeColor=#222222;fillColor=none;" vertex="1" parent="H5q1-8MxCuYBK-bklUZk-51">
          <mxGeometry x="20.000000000000014" y="132" width="40" height="40" as="geometry" />
        </mxCell>
        <mxCell id="H5q1-8MxCuYBK-bklUZk-46" value="D3" style="html=1;verticalLabelPosition=bottom;labelBackgroundColor=#ffffff;verticalAlign=top;shadow=0;dashed=0;strokeWidth=2;shape=mxgraph.ios7.misc.circle;strokeColor=#222222;fillColor=none;" vertex="1" parent="H5q1-8MxCuYBK-bklUZk-51">
          <mxGeometry x="20.000000000000014" y="192" width="40" height="40" as="geometry" />
        </mxCell>
        <mxCell id="H5q1-8MxCuYBK-bklUZk-47" value="D2" style="html=1;verticalLabelPosition=bottom;labelBackgroundColor=#ffffff;verticalAlign=top;shadow=0;dashed=0;strokeWidth=2;shape=mxgraph.ios7.misc.circle;strokeColor=#222222;fillColor=none;" vertex="1" parent="H5q1-8MxCuYBK-bklUZk-51">
          <mxGeometry x="20.000000000000014" y="252" width="40" height="40" as="geometry" />
        </mxCell>
        <mxCell id="H5q1-8MxCuYBK-bklUZk-48" value="D1" style="html=1;verticalLabelPosition=bottom;labelBackgroundColor=#ffffff;verticalAlign=top;shadow=0;dashed=0;strokeWidth=2;shape=mxgraph.ios7.misc.circle;strokeColor=#222222;fillColor=none;" vertex="1" parent="H5q1-8MxCuYBK-bklUZk-51">
          <mxGeometry x="20.000000000000014" y="312" width="40" height="40" as="geometry" />
        </mxCell>
        <mxCell id="H5q1-8MxCuYBK-bklUZk-49" value="RX" style="html=1;verticalLabelPosition=bottom;labelBackgroundColor=#ffffff;verticalAlign=top;shadow=0;dashed=0;strokeWidth=2;shape=mxgraph.ios7.misc.circle;strokeColor=#222222;fillColor=none;" vertex="1" parent="H5q1-8MxCuYBK-bklUZk-51">
          <mxGeometry x="20.000000000000014" y="372" width="40" height="40" as="geometry" />
        </mxCell>
        <mxCell id="H5q1-8MxCuYBK-bklUZk-50" value="TX" style="html=1;verticalLabelPosition=bottom;labelBackgroundColor=#ffffff;verticalAlign=top;shadow=0;dashed=0;strokeWidth=2;shape=mxgraph.ios7.misc.circle;strokeColor=#222222;fillColor=none;" vertex="1" parent="H5q1-8MxCuYBK-bklUZk-51">
          <mxGeometry x="20.000000000000014" y="432" width="40" height="40" as="geometry" />
        </mxCell>
        <mxCell id="H5q1-8MxCuYBK-bklUZk-56" style="edgeStyle=orthogonalEdgeStyle;rounded=1;orthogonalLoop=1;jettySize=auto;html=1;exitX=-0.003;exitY=0.504;exitDx=0;exitDy=0;exitPerimeter=0;endArrow=none;endFill=0;curved=0;fillColor=#b1ddf0;strokeColor=#000000;" edge="1" parent="1" source="H5q1-8MxCuYBK-bklUZk-52" target="H5q1-8MxCuYBK-bklUZk-44">
          <mxGeometry relative="1" as="geometry" />
        </mxCell>
        <mxCell id="H5q1-8MxCuYBK-bklUZk-52" value="5V Power" style="html=1;verticalLabelPosition=bottom;align=center;labelBackgroundColor=#ffffff;verticalAlign=top;strokeWidth=2;strokeColor=#0080F0;shadow=0;dashed=0;shape=mxgraph.ios7.icons.battery;rotation=-90;" vertex="1" parent="1">
          <mxGeometry x="50" y="654" width="330" height="132" as="geometry" />
        </mxCell>
        <mxCell id="H5q1-8MxCuYBK-bklUZk-54" style="edgeStyle=orthogonalEdgeStyle;rounded=1;orthogonalLoop=1;jettySize=auto;html=1;exitX=0;exitY=0.5;exitDx=0;exitDy=0;exitPerimeter=0;entryX=0.988;entryY=0.483;entryDx=0;entryDy=0;entryPerimeter=0;endArrow=none;endFill=0;fillColor=#fad9d5;strokeColor=#ae4132;curved=0;" edge="1" parent="1" source="H5q1-8MxCuYBK-bklUZk-43" target="H5q1-8MxCuYBK-bklUZk-52">
          <mxGeometry relative="1" as="geometry" />
        </mxCell>
        <mxCell id="H5q1-8MxCuYBK-bklUZk-75" value="" style="group" vertex="1" connectable="0" parent="1">
          <mxGeometry x="740" y="220" width="240" height="320" as="geometry" />
        </mxCell>
        <mxCell id="H5q1-8MxCuYBK-bklUZk-58" value="8x8 LED Matrix" style="rounded=0;whiteSpace=wrap;html=1;rotation=90;" vertex="1" parent="H5q1-8MxCuYBK-bklUZk-75">
          <mxGeometry x="-40" y="40" width="320" height="240" as="geometry" />
        </mxCell>
        <mxCell id="H5q1-8MxCuYBK-bklUZk-59" value="VCC OUT" style="html=1;verticalLabelPosition=bottom;labelBackgroundColor=#ffffff;verticalAlign=top;shadow=0;dashed=0;strokeWidth=2;shape=mxgraph.ios7.misc.circle;strokeColor=#222222;fillColor=none;" vertex="1" parent="H5q1-8MxCuYBK-bklUZk-75">
          <mxGeometry x="190" y="12" width="40" height="40" as="geometry" />
        </mxCell>
        <mxCell id="H5q1-8MxCuYBK-bklUZk-60" value="GND OUT" style="html=1;verticalLabelPosition=bottom;labelBackgroundColor=#ffffff;verticalAlign=top;shadow=0;dashed=0;strokeWidth=2;shape=mxgraph.ios7.misc.circle;strokeColor=#222222;fillColor=none;" vertex="1" parent="H5q1-8MxCuYBK-bklUZk-75">
          <mxGeometry x="190" y="72" width="40" height="40" as="geometry" />
        </mxCell>
        <mxCell id="H5q1-8MxCuYBK-bklUZk-61" value="DIN OUT" style="html=1;verticalLabelPosition=bottom;labelBackgroundColor=#ffffff;verticalAlign=top;shadow=0;dashed=0;strokeWidth=2;shape=mxgraph.ios7.misc.circle;strokeColor=#222222;fillColor=none;" vertex="1" parent="H5q1-8MxCuYBK-bklUZk-75">
          <mxGeometry x="190" y="132" width="40" height="40" as="geometry" />
        </mxCell>
        <mxCell id="H5q1-8MxCuYBK-bklUZk-62" value="CS OUT" style="html=1;verticalLabelPosition=bottom;labelBackgroundColor=#ffffff;verticalAlign=top;shadow=0;dashed=0;strokeWidth=2;shape=mxgraph.ios7.misc.circle;strokeColor=#222222;fillColor=none;" vertex="1" parent="H5q1-8MxCuYBK-bklUZk-75">
          <mxGeometry x="190" y="192" width="40" height="40" as="geometry" />
        </mxCell>
        <mxCell id="H5q1-8MxCuYBK-bklUZk-63" value="CLK OUT" style="html=1;verticalLabelPosition=bottom;labelBackgroundColor=#ffffff;verticalAlign=top;shadow=0;dashed=0;strokeWidth=2;shape=mxgraph.ios7.misc.circle;strokeColor=#222222;fillColor=none;" vertex="1" parent="H5q1-8MxCuYBK-bklUZk-75">
          <mxGeometry x="190" y="252" width="40" height="40" as="geometry" />
        </mxCell>
        <mxCell id="H5q1-8MxCuYBK-bklUZk-67" value="VCC IN" style="html=1;verticalLabelPosition=bottom;labelBackgroundColor=#ffffff;verticalAlign=top;shadow=0;dashed=0;strokeWidth=2;shape=mxgraph.ios7.misc.circle;strokeColor=#222222;fillColor=none;" vertex="1" parent="H5q1-8MxCuYBK-bklUZk-75">
          <mxGeometry x="20" y="12" width="40" height="40" as="geometry" />
        </mxCell>
        <mxCell id="H5q1-8MxCuYBK-bklUZk-68" value="GND IN" style="html=1;verticalLabelPosition=bottom;labelBackgroundColor=#ffffff;verticalAlign=top;shadow=0;dashed=0;strokeWidth=2;shape=mxgraph.ios7.misc.circle;strokeColor=#222222;fillColor=none;" vertex="1" parent="H5q1-8MxCuYBK-bklUZk-75">
          <mxGeometry x="20" y="72" width="40" height="40" as="geometry" />
        </mxCell>
        <mxCell id="H5q1-8MxCuYBK-bklUZk-69" value="DIN IN" style="html=1;verticalLabelPosition=bottom;labelBackgroundColor=#ffffff;verticalAlign=top;shadow=0;dashed=0;strokeWidth=2;shape=mxgraph.ios7.misc.circle;strokeColor=#222222;fillColor=none;" vertex="1" parent="H5q1-8MxCuYBK-bklUZk-75">
          <mxGeometry x="20" y="132" width="40" height="40" as="geometry" />
        </mxCell>
        <mxCell id="H5q1-8MxCuYBK-bklUZk-70" value="CS IN" style="html=1;verticalLabelPosition=bottom;labelBackgroundColor=#ffffff;verticalAlign=top;shadow=0;dashed=0;strokeWidth=2;shape=mxgraph.ios7.misc.circle;strokeColor=#222222;fillColor=none;" vertex="1" parent="H5q1-8MxCuYBK-bklUZk-75">
          <mxGeometry x="20" y="192" width="40" height="40" as="geometry" />
        </mxCell>
        <mxCell id="H5q1-8MxCuYBK-bklUZk-71" value="CLK IN" style="html=1;verticalLabelPosition=bottom;labelBackgroundColor=#ffffff;verticalAlign=top;shadow=0;dashed=0;strokeWidth=2;shape=mxgraph.ios7.misc.circle;strokeColor=#222222;fillColor=none;" vertex="1" parent="H5q1-8MxCuYBK-bklUZk-75">
          <mxGeometry x="20" y="252" width="40" height="40" as="geometry" />
        </mxCell>
        <mxCell id="H5q1-8MxCuYBK-bklUZk-76" style="edgeStyle=orthogonalEdgeStyle;rounded=1;orthogonalLoop=1;jettySize=auto;html=1;exitX=0;exitY=0.5;exitDx=0;exitDy=0;exitPerimeter=0;entryX=0;entryY=0.5;entryDx=0;entryDy=0;entryPerimeter=0;endArrow=none;endFill=0;fillColor=#fad9d5;strokeColor=#ae4132;curved=0;" edge="1" parent="1" source="H5q1-8MxCuYBK-bklUZk-43" target="H5q1-8MxCuYBK-bklUZk-67">
          <mxGeometry relative="1" as="geometry">
            <Array as="points">
              <mxPoint x="420" y="502" />
              <mxPoint x="420" y="500" />
              <mxPoint x="210" y="500" />
              <mxPoint x="210" y="252" />
            </Array>
          </mxGeometry>
        </mxCell>
        <mxCell id="H5q1-8MxCuYBK-bklUZk-80" style="edgeStyle=orthogonalEdgeStyle;shape=connector;curved=0;rounded=1;orthogonalLoop=1;jettySize=auto;html=1;exitX=0;exitY=0.5;exitDx=0;exitDy=0;exitPerimeter=0;entryX=0;entryY=0.5;entryDx=0;entryDy=0;entryPerimeter=0;strokeColor=#000000;align=center;verticalAlign=middle;fontFamily=Helvetica;fontSize=11;fontColor=default;labelBackgroundColor=default;endArrow=none;endFill=0;fillColor=#b1ddf0;" edge="1" parent="1" source="H5q1-8MxCuYBK-bklUZk-44" target="H5q1-8MxCuYBK-bklUZk-68">
          <mxGeometry relative="1" as="geometry">
            <Array as="points">
              <mxPoint x="350" y="562" />
              <mxPoint x="350" y="312" />
            </Array>
          </mxGeometry>
        </mxCell>
        <mxCell id="H5q1-8MxCuYBK-bklUZk-82" style="edgeStyle=orthogonalEdgeStyle;shape=connector;curved=0;rounded=1;orthogonalLoop=1;jettySize=auto;html=1;exitX=1;exitY=0.5;exitDx=0;exitDy=0;exitPerimeter=0;entryX=0;entryY=0.5;entryDx=0;entryDy=0;entryPerimeter=0;strokeColor=#C73500;align=center;verticalAlign=middle;fontFamily=Helvetica;fontSize=11;fontColor=default;labelBackgroundColor=default;endArrow=none;endFill=0;fillColor=#fa6800;flowAnimation=0;shadow=0;" edge="1" parent="1" source="H5q1-8MxCuYBK-bklUZk-36" target="H5q1-8MxCuYBK-bklUZk-69">
          <mxGeometry relative="1" as="geometry">
            <Array as="points">
              <mxPoint x="670" y="622" />
              <mxPoint x="670" y="372" />
            </Array>
          </mxGeometry>
        </mxCell>
        <mxCell id="H5q1-8MxCuYBK-bklUZk-83" style="edgeStyle=orthogonalEdgeStyle;shape=connector;curved=0;rounded=1;orthogonalLoop=1;jettySize=auto;html=1;exitX=0;exitY=0.5;exitDx=0;exitDy=0;exitPerimeter=0;entryX=1;entryY=0.5;entryDx=0;entryDy=0;entryPerimeter=0;strokeColor=#10739e;align=center;verticalAlign=middle;fontFamily=Helvetica;fontSize=11;fontColor=default;labelBackgroundColor=default;endArrow=none;endFill=0;fillColor=#b1ddf0;" edge="1" parent="1" source="H5q1-8MxCuYBK-bklUZk-70" target="H5q1-8MxCuYBK-bklUZk-3">
          <mxGeometry relative="1" as="geometry" />
        </mxCell>
        <mxCell id="H5q1-8MxCuYBK-bklUZk-84" style="edgeStyle=orthogonalEdgeStyle;shape=connector;curved=0;rounded=1;orthogonalLoop=1;jettySize=auto;html=1;exitX=1;exitY=0.5;exitDx=0;exitDy=0;exitPerimeter=0;entryX=0;entryY=0.5;entryDx=0;entryDy=0;entryPerimeter=0;strokeColor=#0e8088;align=center;verticalAlign=middle;fontFamily=Helvetica;fontSize=11;fontColor=default;labelBackgroundColor=default;endArrow=none;endFill=0;fillColor=#b0e3e6;" edge="1" parent="1" source="H5q1-8MxCuYBK-bklUZk-38" target="H5q1-8MxCuYBK-bklUZk-71">
          <mxGeometry relative="1" as="geometry">
            <Array as="points">
              <mxPoint x="710" y="742" />
              <mxPoint x="710" y="492" />
            </Array>
          </mxGeometry>
        </mxCell>
      </root>
    </mxGraphModel>
  </diagram>
</mxfile>
